# xmcd
#
# Track frame offsets:
#	150
#	15993
#	32001
#	47218
#	68078
#	88496
#	100828
#	115271
#	132138
#	147497
#
# Disc length: 2198 seconds
#
# Revision: 1
# Processed by: cddbd v1.5.2PL0 Copyright (c) Steve Scherf et al.
# Submitted via: audiograbber 1.83.01
#
DISCID=8708940a
DTITLE=Witherspoon, Jimmy - Live at the Renaissance of Los Angeles
DYEAR=1959
DGENRE=Blues
TTITLE0=Times Getting Tougher Than Tough
TTITLE1=How Long
TTITLE2=Corrine, Corrina
TTITLE3=See See Rider
TTITLE4=Hol'em Pete
TTITLE5=Everyday
TTITLE6=I'm Gonna Move to the Outskirts of Town
TTITLE7=Kansas City
TTITLE8=Trouble in Mind
TTITLE9=St. Louis Blues
EXTD=Digitized from LP
EXTT0=
EXTT1=
EXTT2=
EXTT3=
EXTT4=
EXTT5=
EXTT6=
EXTT7=
EXTT8=
EXTT9=
PLAYORDER=
